<svg width="16" height="17" viewBox="0 0 16 17" fill="none" xmlns="http://www.w3.org/2000/svg">
<path d="M11.0518 0.752156L10.6949 0.5L10.6552 0.584115C10.6421 0.61177 10.6287 0.640388 10.6155 0.668042L10.6949 0.626171L10.7741 0.584115V0.668042V0.752156C10.7217 0.738136 10.6681 0.723925 10.6155 0.710098C10.5107 0.682251 10.4223 0.72508 10.3436 0.836083C10.2649 0.947278 10.1574 0.998168 10.0264 0.998168H9.82823L9.86775 1.08209C9.89403 1.13779 9.85379 1.26588 9.74884 1.46023C9.64406 1.65478 9.56901 2.33405 9.51663 3.50073C9.49034 4.08417 9.46352 4.66991 9.43723 5.25316C9.41095 5.23933 9.38412 5.22512 9.35802 5.2111L9.27862 5.16923V5.37933V5.58329H9.35802H9.43723V6.54352C9.43723 7.18246 9.47747 7.6259 9.55633 7.87594C9.59548 8.00077 9.6359 8.12887 9.67524 8.25389C9.70152 8.24007 9.72255 8.22585 9.74884 8.21202L9.82823 8.16997L9.78853 8.29595C9.76225 8.3793 9.80249 8.45861 9.90745 8.54196C10.0122 8.62531 10.1467 8.65373 10.3039 8.62608C10.3826 8.61206 10.4576 8.59785 10.5363 8.58402L10.4569 8.9201C10.4045 9.1423 10.4045 9.3355 10.4569 9.5022C10.5094 9.66889 10.6033 9.76856 10.7346 9.79641C10.8656 9.82407 10.9731 9.76722 11.0518 9.62818C11.1303 9.48933 11.1515 9.29613 11.1254 9.04608C11.0991 8.79604 11.1259 8.62531 11.2046 8.54196C11.2833 8.45861 11.3505 8.18015 11.4029 7.70771C11.4553 7.23566 11.5226 6.97121 11.6012 6.91571C11.6406 6.88786 11.6808 6.86539 11.7201 6.83755C11.6939 6.82372 11.667 6.80951 11.6409 6.79549L11.5615 6.75362C11.5485 6.78128 11.5351 6.80989 11.5218 6.83755C11.5088 6.86539 11.4954 6.88786 11.4821 6.91571C11.5084 6.74901 11.5352 6.58423 11.5615 6.41754C11.6139 6.08414 11.6139 5.8197 11.5615 5.62535C11.5091 5.4308 11.4823 5.01598 11.4821 4.37704C11.4821 3.7381 11.5091 3.26624 11.5615 2.9607C11.6139 2.65515 11.6005 2.24839 11.5218 1.7483C11.4432 1.24821 11.2876 0.918852 11.0518 0.752156Z" fill="#1E2E28"/>
<path d="M4.63922 1.08209C4.58684 0.971092 4.49294 0.905987 4.3617 0.87814C4.23064 0.850294 4.14236 0.864502 4.0898 0.920196C4.06351 0.94785 4.03668 0.970321 4.01058 0.998168C4.0762 1.012 4.13765 1.02621 4.20309 1.04023L4.4014 1.08209C4.30967 1.09611 4.22122 1.11033 4.12949 1.12415C3.94587 1.152 3.78472 1.25167 3.65366 1.41818C3.5226 1.58487 3.42073 2.17887 3.34206 3.20671C3.26339 4.23454 3.26339 5.15579 3.34206 5.96143C3.42073 6.76706 3.49577 7.25314 3.57444 7.41964C3.65293 7.58634 3.77384 7.68006 3.93119 7.70771C4.00986 7.72173 4.09052 7.73594 4.16919 7.74977L4.0898 7.83388C4.06351 7.86154 4.03668 7.89015 4.01058 7.91781L4.16919 7.87594C4.27396 7.84809 4.3356 7.86231 4.3617 7.91781L4.4014 8.00192V7.91781V7.83388H4.63922H4.87723C4.86418 7.79221 4.85076 7.74939 4.83753 7.70771C4.82448 7.66623 4.81106 7.62935 4.79801 7.58787H4.87723C4.92961 7.58787 4.97765 7.51662 5.03022 7.37777C5.0826 7.23892 5.14986 6.37452 5.22835 4.79109C5.30702 3.20767 5.2936 2.22132 5.18883 1.83242C5.08387 1.44353 4.98218 1.25013 4.87723 1.25032C4.77245 1.25032 4.69179 1.19329 4.63922 1.08209Z" fill="#1E2E28"/>
<path d="M15.4135 8.87805C15.1514 8.7947 14.9286 8.76627 14.745 8.79412C14.5615 8.82177 14.3658 8.9297 14.1559 9.12425C13.9461 9.3186 13.7906 9.68253 13.6858 10.2105C13.5809 10.7382 13.46 11.1104 13.3289 11.3328C13.1978 11.555 13.096 11.6831 13.0173 11.7107C12.9386 11.7386 12.8984 11.7954 12.8984 11.8788C12.8984 11.9621 12.8581 12.0416 12.7795 12.1248C12.7008 12.2081 12.6336 12.2368 12.5812 12.2089C12.5549 12.1951 12.5337 12.1809 12.5076 12.1668V12.293C12.5076 12.3762 12.3733 12.5552 12.111 12.8331C11.8488 13.1109 11.5724 13.3326 11.284 13.4993C10.9956 13.666 10.8535 13.7797 10.8535 13.8353C10.8535 13.8908 10.5234 14.0272 9.86775 14.2494C9.21228 14.4716 8.45584 14.5713 7.59064 14.5434C6.72527 14.5158 6.0785 14.4445 5.65904 14.3333C5.2394 14.2223 4.96877 14.1144 4.83753 14.0034C4.70647 13.8922 4.43004 13.7641 4.01058 13.6252C3.59094 13.4864 3.23402 13.2646 2.94562 12.959C2.65722 12.6535 2.46127 12.1816 2.3565 11.5427C2.25154 10.9038 2.13644 10.5174 2.0052 10.3785C1.87414 10.2397 1.76665 10.1684 1.68798 10.1684H1.56907L1.64828 10.0845L1.72768 10.0004L1.72588 9.99989C1.67406 9.98621 1.62085 9.97217 1.56907 9.95831C1.46429 9.93065 1.38925 9.94486 1.33686 10.0004L1.25747 10.0845V9.95831V9.83232C1.20508 9.86017 1.15142 9.8886 1.09885 9.91625L0.940244 10.0004V9.83232V9.67024L0.861028 9.75435C0.80846 9.80985 0.733595 9.80985 0.628821 9.75435L0.470034 9.67024L0.549428 9.75435C0.575712 9.78201 0.602537 9.80448 0.628821 9.83232L0.549428 9.87438C0.497041 9.90204 0.483627 9.97328 0.50973 10.0845C0.522963 10.14 0.536377 10.1968 0.549428 10.2523L0.35112 10.2105C0.2855 10.1964 0.218432 10.1822 0.152813 10.1684L0.232207 10.3785C0.258491 10.4478 0.285316 10.5131 0.3116 10.5825L0.152813 10.6245C0.100426 10.6383 0.0523868 10.6526 0 10.6666C0.026284 10.6804 0.0473125 10.6946 0.0735965 10.7086L0.152813 10.7505C0.12671 10.7922 0.0998805 10.835 0.0735965 10.8765C0.0473125 10.9182 0.0261028 10.961 0 11.0027H0.0735965H0.152813L0.113293 11.1707C0.087009 11.2817 0.113838 11.4323 0.192509 11.6268C0.27118 11.8212 0.405499 12.043 0.589124 12.293C0.772569 12.5429 0.861028 12.8928 0.861028 13.3372C0.861028 13.7816 0.887857 14.0318 0.940244 14.0873C0.992812 14.143 1.07329 14.1714 1.17825 14.1714C1.28302 14.1714 1.35807 14.0575 1.41046 13.8353L1.48985 13.4993L1.60876 13.6673C1.68743 13.7783 1.80834 13.8638 1.9655 13.9193C2.12285 13.975 2.34562 14.1682 2.63402 14.5016C2.92242 14.8348 3.31414 15.1561 3.81227 15.4618C4.31058 15.7673 4.80961 15.9747 5.30774 16.0859C5.55681 16.1414 5.80641 16.1983 6.05548 16.2538C6.02919 16.2955 6.00236 16.3383 5.97626 16.38C5.94998 16.4216 5.92315 16.4583 5.89687 16.5H6.09517H6.28768C6.27463 16.4583 6.26684 16.4216 6.25378 16.38C6.24055 16.3383 6.22714 16.2955 6.21409 16.2538C6.48925 16.2955 6.76007 16.3383 7.03542 16.38C7.58611 16.4633 8.07174 16.4858 8.49119 16.4579C8.91083 16.4301 9.4501 16.3224 10.1058 16.1278C10.7612 15.9335 11.3275 15.6974 11.7994 15.4197C12.2714 15.1418 12.7033 14.8063 13.0967 14.4174C13.49 14.0285 13.8413 13.6135 14.1559 13.1691C14.3132 12.9469 14.4687 12.7253 14.6261 12.5029C14.6523 12.6141 14.6792 12.7219 14.7055 12.8331C14.7578 13.0553 14.8385 13.1976 14.9433 13.2533C15.0482 13.3088 15.1019 13.573 15.1019 14.0453V14.7535H15.2946H15.4929V13.085C15.4929 11.9738 15.56 11.309 15.691 11.0866C15.8221 10.8644 15.9162 10.6143 15.9685 10.3364C16.0211 10.0586 16.0077 9.76587 15.929 9.46033C15.8504 9.15459 15.6756 8.96139 15.4135 8.87805Z" fill="#1E2E28"/>
</svg>
